# File created by Blade
# Date/Time:  Wed Apr 08 17:35:20 2015
#---------------------------------------------------------
:version 1.10
:name HOM
:units
  mass 1.0
  length 1.000000
  angle deg
:documentation
     Acclaim Skeleton File
:root
   axis xyz
   order TX TY TZ RX RY RZ
   position 0.000000 0.000000 0.000000
   orientation 0 0 0
:bonedata
   begin
      id 1
      name Spine_dum
      direction 0.000000 1.000000 0.000000
      length 5.893853
      axis 0.0 0.0 0.0 xyz
   end
   begin
      id 2
      name LeftUpLeg_dum
      direction 1.000000 0.000000 0.000000
      length 3.697939
      axis 0.0 0.0 0.0 xyz
   end
   begin
      id 3
      name RightUpLeg_dum
      direction -1.000000 0.000000 0.000000
      length 3.697939
      axis 0.0 0.0 0.0 xyz
   end
   begin
      id 4
      name Spine
      direction 0.000000 1.000000 0.000000
      length 0.000000
      axis 0.0 0.0 0.0 xyz
      dof rx ry rz
   end
   begin
      id 5
      name Spine_dum1
      direction 0.000000 1.000000 0.000000
      length 16.447146
      axis 0.0 0.0 0.0 xyz
   end
   begin
      id 6
      name Spine_dum2
      direction 0.000000 1.000000 0.000000
      length 10.900383
      axis 0.0 0.0 0.0 xyz
   end
   begin
      id 7
      name Spine_dum3
      direction 0.000000 1.000000 0.000000
      length 10.900383
      axis 0.0 0.0 0.0 xyz
   end
   begin
      id 8
      name Head
      direction 0.000000 1.000000 0.000000
      length 4.527550
      axis 0.0 0.0 0.0 xyz
      dof rx ry rz
   end
   begin
      id 9
      name LeftShoulder
      direction 1.000000 0.000000 0.000000
      length 8.219464
      axis 0.0 0.0 -90.0 xyz
      dof rx ry rz
   end
   begin
      id 10
      name LeftArm
      direction 1.000000 0.000000 0.000000
      length 11.094937
      axis 0.0 0.0 -90.0 xyz
      dof rx ry rz
   end
   begin
      id 11
      name LeftForeArm
      direction 1.000000 0.000000 0.000000
      length 9.103875
      axis 0.0 0.0 -90.0 xyz
      dof ry rz rx
   end
   begin
      id 12
      name LeftHand
      direction 0.000000 0.000000 0.000000
      length 0.000000
      axis 0.0 0.0 -90.0 xyz
      dof rx ry rz
   end
   begin
      id 13
      name LeftHand_dum1
      direction 0.000000 0.000000 0.000000
      length 0.000000
      axis 0.0 0.0 -90.0 xyz
   end
   begin
      id 14
      name LeftHand_dum2
      direction 1.000000 0.000000 0.000000
      length 3.937000
      axis 0.0 0.0 -90.0 xyz
   end
   begin
      id 15
      name LeftHandThumb1
      direction 0.000000 0.000000 1.000000
      length 3.937000
      axis 0.0 0.0 -90.0 xyz
      dof rx rz ry
   end
   begin
      id 16
      name RightShoulder
      direction -1.000000 0.000000 0.000000
      length 8.219464
      axis 0.0 0.0 90.0 xyz
      dof rx ry rz
   end
   begin
      id 17
      name RightArm
      direction -1.000000 0.000000 0.000000
      length 11.094937
      axis 0.0 0.0 90.0 xyz
      dof rx ry rz
   end
   begin
      id 18
      name RightForeArm
      direction -1.000000 0.000000 0.000000
      length 9.103875
      axis 0.0 0.0 90.0 xyz
      dof ry rz rx
   end
   begin
      id 19
      name RightHand
      direction 0.000000 0.000000 0.000000
      length 0.000000
      axis 0.0 0.0 90.0 xyz
      dof rx ry rz
   end
   begin
      id 20
      name RightHand_dum1
      direction 0.000000 0.000000 0.000000
      length 0.000000
      axis 0.0 0.0 90.0 xyz
   end
   begin
      id 21
      name RightHand_dum2
      direction -1.000000 0.000000 0.000000
      length 3.937000
      axis 0.0 0.0 90.0 xyz
   end
   begin
      id 22
      name RightHandThumb1
      direction 0.000000 0.000000 1.000000
      length 3.937000
      axis 0.0 0.0 90.0 xyz
      dof rx rz ry
   end
   begin
      id 23
      name LeftUpLeg
      direction 0.000000 -1.000000 0.000000
      length 16.181467
      axis 0.0 0.0 0.0 xyz
      dof rx ry rz
   end
   begin
      id 24
      name LeftLeg
      direction 0.000000 -1.000000 0.000000
      length 16.501392
      axis 0.0 0.0 0.0 xyz
      dof rx ry rz
   end
   begin
      id 25
      name LeftFoot
      direction 0.000000 -0.258819 0.965926
      length 6.408245
      axis 15.0 0.0 0.0 xyz
      dof rx ry rz
   end
   begin
      id 26
      name LeftToeBase
      direction 0.000000 0.000000 1.000000
      length 2.952750
      axis 0.0 0.0 0.0 xyz
      dof rx ry rz
   end
   begin
      id 27
      name RightUpLeg
      direction 0.000000 -1.000000 0.000000
      length 16.181467
      axis 0.0 0.0 0.0 xyz
      dof rx ry rz
   end
   begin
      id 28
      name RightLeg
      direction 0.000000 -1.000000 0.000000
      length 16.501392
      axis 0.0 0.0 0.0 xyz
      dof rx ry rz
   end
   begin
      id 29
      name RightFoot
      direction 0.000000 -0.258819 0.965926
      length 6.408245
      axis 15.0 0.0 0.0 xyz
      dof rx ry rz
   end
   begin
      id 30
      name RightToeBase
      direction 0.000000 0.000000 1.000000
      length 2.952750
      axis 0.0 0.0 0.0 xyz
      dof rx ry rz
   end
:hierarchy
   begin
      root Spine_dum LeftUpLeg_dum RightUpLeg_dum
      Spine_dum Spine
      LeftUpLeg_dum LeftUpLeg
      RightUpLeg_dum RightUpLeg
      Spine Spine_dum1 Spine_dum2 Spine_dum3
      Spine_dum1 Head
      Spine_dum2 LeftShoulder
      Spine_dum3 RightShoulder
      LeftShoulder LeftArm
      LeftArm LeftForeArm
      LeftForeArm LeftHand
      LeftHand LeftHand_dum1 LeftHand_dum2
      LeftHand_dum1 LeftHandThumb1
      RightShoulder RightArm
      RightArm RightForeArm
      RightForeArm RightHand
      RightHand RightHand_dum1 RightHand_dum2
      RightHand_dum1 RightHandThumb1
      LeftUpLeg LeftLeg
      LeftLeg LeftFoot
      LeftFoot LeftToeBase
      RightUpLeg RightLeg
      RightLeg RightFoot
      RightFoot RightToeBase
   end

# File created by Blade
# Date/Time:  Wed Apr 08 17:35:25 2015
# Frame Rate: 120.000 fps
#------------------------------------------------------
:FULLY-SPECIFIED
:DEGREES
950
root 8.448851 37.083095 3.659010 103.649491 -73.908151 -66.978481
Spine -38.082413 -1.309368 12.413600
Head 30.169614 1.187831 10.468023
LeftShoulder -10.162852 24.184468 12.153064
LeftArm 21.851238 26.159384 -76.223440
LeftForeArm 18.462402 -0.000000 28.375355
LeftHand -13.002417 -0.000000 -8.403995
LeftHandThumb1 -26.253704 0.000000 33.147579
RightShoulder -40.449406 -52.966758 18.382424
RightArm 56.381508 -22.946888 45.862821
RightForeArm 2.530928 -0.000000 25.664561
RightHand -0.075767 -0.000000 16.282678
RightHandThumb1 -24.326973 -0.000000 -32.862282
LeftUpLeg -49.102899 14.229357 -2.053523
LeftLeg 23.513216 -0.000000 -0.000000
LeftFoot -12.620376 11.006463 -3.979450
LeftToeBase 3.542844 -0.000000 -0.000000
RightUpLeg -127.871212 2.265702 35.573215
RightLeg 95.950097 -0.000000 -0.000000
RightFoot -19.805066 -18.514830 15.957052
RightToeBase -5.350723 -0.000000 0.000000
951
root 8.442946 37.079051 3.655859 103.149223 -73.873840 -66.690362
Spine -37.842695 -1.339395 12.405320
Head 30.080643 1.127677 10.491940
LeftShoulder -10.120340 24.136610 12.190894
LeftArm 21.887196 26.251873 -76.242282
LeftForeArm 18.469279 -0.000000 28.529329
LeftHand -12.960084 -0.000000 -8.531649
LeftHandThumb1 -26.253704 0.000000 33.147579
RightShoulder -40.380623 -52.913326 18.340252
RightArm 56.378651 -22.912508 45.887217
RightForeArm 2.022922 -0.000000 25.631338
RightHand -0.150473 0.000000 16.063980
RightHandThumb1 -24.326973 -0.000000 -32.862282
LeftUpLeg -48.846647 14.163549 -1.942112
LeftLeg 23.474158 -0.000000 -0.000000
LeftFoot -12.642340 11.039119 -3.917104
LeftToeBase 3.548706 -0.000000 -0.000000
RightUpLeg -127.660031 1.788355 35.011865
RightLeg 95.507067 -0.000000 -0.000000
RightFoot -20.474830 -21.142642 14.542623
RightToeBase -8.222637 -0.000000 0.000000
952
root 8.437977 37.077700 3.654016 102.818776 -73.842674 -66.505230
Spine -37.683306 -1.341458 12.401260
Head 30.001459 1.084884 10.509574
LeftShoulder -10.088287 24.078848 12.229630
LeftArm 21.865018 26.341046 -76.278219
LeftForeArm 18.500307 0.000000 28.712220
LeftHand -12.880897 -0.000000 -8.753885
LeftHandThumb1 -26.253704 0.000000 33.147579
RightShoulder -40.309334 -52.876451 18.295564
RightArm 56.410478 -22.892035 45.844259
RightForeArm 1.602663 -0.000000 25.583220
RightHand -0.189988 -0.000000 15.936687
RightHandThumb1 -24.326973 -0.000000 -32.862282
LeftUpLeg -48.665355 14.124956 -1.859289
LeftLeg 23.437813 -0.000000 -0.000000
LeftFoot -12.658964 11.055935 -3.871420
LeftToeBase 3.579266 -0.000000 -0.000000
RightUpLeg -127.466782 1.324528 34.404601
RightLeg 95.062745 -0.000000 -0.000000
RightFoot -20.713597 -22.738281 13.087411
RightToeBase -10.536013 -0.000000 0.000000
953
root 8.431226 37.074349 3.652469 102.474710 -73.814026 -66.365524
Spine -37.455194 -1.354902 12.391719
Head 29.912577 1.037966 10.522207
LeftShoulder -10.090625 24.051505 12.237263
LeftArm 21.906182 26.459766 -76.253779
LeftForeArm 18.521012 -0.000000 28.889809
LeftHand -12.828558 0.000000 -8.898829
LeftHandThumb1 -26.253704 0.000000 33.147579
RightShoulder -40.219513 -52.833326 18.259254
RightArm 56.454283 -22.837745 45.798403
RightForeArm 1.327860 -0.000000 25.512108
RightHand -0.280941 -0.000000 15.999852
RightHandThumb1 -24.326973 -0.000000 -32.862282
LeftUpLeg -48.421219 14.097080 -1.767873
LeftLeg 23.404248 -0.000000 -0.000000
LeftFoot -12.686504 11.085620 -3.816745
LeftToeBase 3.578390 -0.000000 -0.000000
RightUpLeg -127.212731 0.812388 33.754135
RightLeg 94.623051 -0.000000 -0.000000
RightFoot -20.461277 -23.546220 11.347900
RightToeBase -12.804084 -0.000000 0.000000
954
root 8.426067 37.073002 3.651879 102.268481 -73.790253 -66.304211
Spine -37.297891 -1.334610 12.374653
Head 29.829866 0.985115 10.531388
LeftShoulder -10.090111 24.051792 12.249768
LeftArm 21.973237 26.615078 -76.194217
LeftForeArm 18.500723 -0.000000 29.050118
LeftHand -12.799444 -0.000000 -9.003871
LeftHandThumb1 -26.253704 0.000000 33.147579
RightShoulder -40.156648 -52.801965 18.242323
RightArm 56.499994 -22.783460 45.739308
RightForeArm 1.071053 0.000000 25.459290
RightHand -0.365562 0.000000 16.187973
RightHandThumb1 -24.326973 -0.000000 -32.862282
LeftUpLeg -48.236357 14.066202 -1.685441
LeftLeg 23.366828 -0.000000 -0.000000
LeftFoot -12.701634 11.113636 -3.792612
LeftToeBase 3.576957 -0.000000 -0.000000
RightUpLeg -126.972465 0.349014 33.088540
RightLeg 94.142749 -0.000000 -0.000000
RightFoot -20.016201 -23.942272 9.766911
RightToeBase -14.926950 -0.000000 0.000000
955
root 8.419898 37.071391 3.650370 102.111921 -73.775442 -66.294525
Spine -37.143770 -1.300779 12.331884
Head 29.756651 0.918923 10.548015
LeftShoulder -10.080152 24.058639 12.277935
LeftArm 22.030620 26.769468 -76.127640
LeftForeArm 18.504917 0.000000 29.233594
LeftHand -12.783058 0.000000 -9.176888
LeftHandThumb1 -26.253704 0.000000 33.147579
RightShoulder -40.113285 -52.769437 18.254870
RightArm 56.559768 -22.729206 45.656611
RightForeArm 0.766332 0.000000 25.401175
RightHand -0.436234 -0.000000 16.403558
RightHandThumb1 -24.326973 -0.000000 -32.862282
LeftUpLeg -48.047844 14.034955 -1.601086
LeftLeg 23.331928 -0.000000 -0.000000
LeftFoot -12.726292 11.168369 -3.765921
LeftToeBase 3.582307 -0.000000 -0.000000
RightUpLeg -126.718080 -0.092916 32.408915
RightLeg 93.707517 -0.000000 -0.000000
RightFoot -19.690320 -24.156167 8.527130
RightToeBase -16.244964 -0.000000 0.000000
956
root 8.412131 37.067138 3.650315 102.005364 -73.788404 -66.373848
Spine -36.949410 -1.271793 12.255178
Head 29.685390 0.856681 10.571041
LeftShoulder -10.053837 24.060467 12.317112
LeftArm 22.053934 26.864927 -76.097283
LeftForeArm 18.529584 -0.000000 29.404551
LeftHand -12.769172 -0.000000 -9.322534
LeftHandThumb1 -26.253704 0.000000 33.147579
RightShoulder -40.044708 -52.710675 18.245046
RightArm 56.615628 -22.697326 45.562584
RightForeArm 0.591755 0.000000 25.342473
RightHand -0.566780 -0.000000 16.629007
RightHandThumb1 -24.326973 -0.000000 -32.862282
LeftUpLeg -47.806060 13.979948 -1.507821
LeftLeg 23.297559 -0.000000 -0.000000
LeftFoot -12.769047 11.247668 -3.764194
LeftToeBase 3.564121 -0.000000 -0.000000
RightUpLeg -126.426860 -0.498359 31.737115
RightLeg 93.353715 -0.000000 -0.000000
RightFoot -19.529501 -24.696210 7.342679
RightToeBase -17.941030 -0.000000 0.000000
957
root 8.405110 37.066230 3.647370 101.996187 -73.774436 -66.496119
Spine -36.816766 -1.223745 12.204451
Head 29.619505 0.797001 10.603333
LeftShoulder -10.039678 24.058714 12.359969
LeftArm 22.060286 26.968358 -76.066518
LeftForeArm 18.583689 -0.000000 29.554605
LeftHand -12.695647 -0.000000 -9.503137
LeftHandThumb1 -26.253704 0.000000 33.147579
RightShoulder -40.019826 -52.687804 18.297020
RightArm 56.695301 -22.622949 45.448275
RightForeArm 0.399481 -0.000000 25.328146
RightHand -0.727023 0.000000 17.079429
RightHandThumb1 -24.326973 -0.000000 -32.862282
LeftUpLeg -47.636895 13.957323 -1.409476
LeftLeg 23.281188 -0.000000 -0.000000
LeftFoot -12.796856 11.303692 -3.768286
LeftToeBase 3.535334 -0.000000 -0.000000
RightUpLeg -126.164829 -0.840858 31.132929
RightLeg 93.066366 -0.000000 -0.000000
RightFoot -19.411326 -25.237467 6.658867
RightToeBase -19.375820 -0.000000 0.000000
958
root 8.396780 37.062766 3.645709 101.996738 -73.778773 -66.674728
Spine -36.636712 -1.179049 12.124648
Head 29.562682 0.731997 10.650071
LeftShoulder -10.001576 24.073187 12.419551
LeftArm 22.064348 27.051578 -76.049031
LeftForeArm 18.634081 -0.000000 29.701245
LeftHand -12.636490 0.000000 -9.657559
LeftHandThumb1 -26.253704 0.000000 33.147579
RightShoulder -39.934117 -52.626695 18.286796
RightArm 56.747350 -22.607371 45.341801
RightForeArm 0.252345 0.000000 25.266937
RightHand -0.885087 -0.000000 17.574457
RightHandThumb1 -24.326973 -0.000000 -32.862282
LeftUpLeg -47.425386 13.946461 -1.326320
LeftLeg 23.279600 -0.000000 -0.000000
LeftFoot -12.846481 11.369338 -3.776277
LeftToeBase 3.497049 -0.000000 -0.000000
RightUpLeg -125.862729 -1.190207 30.548755
RightLeg 92.840710 -0.000000 -0.000000
RightFoot -19.260824 -25.692425 6.086036
RightToeBase -20.858114 -0.000000 0.000000
959
root 8.389248 37.059635 3.644053 102.082875 -73.782208 -66.913571
Spine -36.485683 -1.130798 12.058949
Head 29.513214 0.692884 10.695609
LeftShoulder -9.991098 24.095148 12.456027
LeftArm 22.074128 27.163387 -75.990740
LeftForeArm 18.650819 -0.000000 29.855443
LeftHand -12.650333 -0.000000 -9.748090
LeftHandThumb1 -26.253704 0.000000 33.147579
RightShoulder -39.873288 -52.583306 18.282706
RightArm 56.827540 -22.563150 45.250894
RightForeArm 0.247080 0.000000 25.211488
RightHand -1.131922 -0.000000 18.023003
RightHandThumb1 -24.326973 -0.000000 -32.862282
LeftUpLeg -47.233379 13.937994 -1.237044
LeftLeg 23.263930 -0.000000 -0.000000
LeftFoot -12.899881 11.445025 -3.726094
LeftToeBase 3.571610 -0.000000 -0.000000
RightUpLeg -125.584025 -1.507284 29.988761
RightLeg 92.673149 -0.000000 -0.000000
RightFoot -18.922469 -26.006181 5.130077
RightToeBase -22.338202 -0.000000 0.000000
960
root 8.381537 37.057283 3.643421 102.155657 -73.792051 -67.140904
Spine -36.333408 -1.093471 11.987389
Head 29.475129 0.637341 10.738548
LeftShoulder -9.981859 24.103833 12.491901
LeftArm 22.087477 27.294848 -75.921643
LeftForeArm 18.597779 -0.000000 29.962581
LeftHand -12.689800 -0.000000 -9.745161
LeftHandThumb1 -26.253704 0.000000 33.147579
RightShoulder -39.799495 -52.518038 18.260663
RightArm 56.910964 -22.571673 45.120077
RightForeArm 0.303995 -0.000000 25.135138
RightHand -1.333067 -0.000000 18.452249
RightHandThumb1 -24.326973 -0.000000 -32.862282
LeftUpLeg -47.050120 13.972231 -1.196883
LeftLeg 23.250655 -0.000000 -0.000000
LeftFoot -12.941558 11.482937 -3.720951
LeftToeBase 3.571510 -0.000000 -0.000000
RightUpLeg -125.321658 -1.750205 29.595037
RightLeg 92.535920 -0.000000 -0.000000
RightFoot -18.741625 -26.274722 4.703924
RightToeBase -23.999237 -0.000000 0.000000
961
root 8.374029 37.056489 3.641903 102.280196 -73.804222 -67.371093
Spine -36.251028 -1.059189 11.924877
Head 29.460163 0.603545 10.776867
LeftShoulder -9.963166 24.125694 12.533726
LeftArm 22.074811 27.420110 -75.859862
LeftForeArm 18.585266 -0.000000 30.053360
LeftHand -12.672518 -0.000000 -9.798054
LeftHandThumb1 -26.253704 0.000000 33.147579
RightShoulder -39.707495 -52.477014 18.204060
RightArm 56.981261 -22.589404 45.047003
RightForeArm 0.340624 0.000000 25.047371
RightHand -1.558846 -0.000000 19.267374
RightHandThumb1 -24.326973 -0.000000 -32.862282
LeftUpLeg -46.916661 14.022018 -1.182863
LeftLeg 23.228839 -0.000000 -0.000000
LeftFoot -12.960940 11.517562 -3.680682
LeftToeBase 3.554009 -0.000000 -0.000000
RightUpLeg -125.103114 -1.906268 29.336979
RightLeg 92.457077 -0.000000 -0.000000
RightFoot -18.820365 -26.593707 4.606260
RightToeBase -24.945375 -0.000000 0.000000
962
root 8.369350 37.059698 3.640447 102.431941 -73.799400 -67.533285
Spine -36.269271 -1.032743 11.900368
Head 29.442884 0.597858 10.816699
LeftShoulder -9.971833 24.117327 12.569823
LeftArm 22.014981 27.541698 -75.827201
LeftForeArm 18.599686 0.000000 30.126052
LeftHand -12.652209 -0.000000 -9.894273
LeftHandThumb1 -26.253704 0.000000 33.147579
RightShoulder -39.594418 -52.410214 18.095034
RightArm 57.019478 -22.637330 44.979827
RightForeArm 0.522309 0.000000 24.980108
RightHand -1.802334 -0.000000 19.897412
RightHandThumb1 -24.326973 -0.000000 -32.862282
LeftUpLeg -46.878356 14.065552 -1.180085
LeftLeg 23.184247 -0.000000 -0.000000
LeftFoot -12.948679 11.532834 -3.675727
LeftToeBase 3.523214 -0.000000 -0.000000
RightUpLeg -124.973455 -2.016435 29.184622
RightLeg 92.427262 -0.000000 -0.000000
RightFoot -18.964900 -26.929954 4.673613
RightToeBase -25.673702 -0.000000 0.000000
